M48
; DRILL file {KiCad (5.1.4)-1} date 14/05/2020 16:46:24
; FORMAT={-:-/ absolute / metric / decimal}
; #@! TF.CreationDate,2020-05-14T16:46:24+02:00
; #@! TF.GenerationSoftware,Kicad,Pcbnew,(5.1.4)-1
; #@! TF.FileFunction,Plated,1,2,PTH
FMAT,2
METRIC
T1C0.600
T2C0.800
T3C1.000
%
G90
G05
T1
X79.096Y-69.841
X80.518Y-123.25
X82.55Y-125.6
X83.82Y-123.19
X85.09Y-121.412
X86.36Y-119.761
X87.6Y-113.5
X87.6Y-115.1
X88.9Y-112.5
X90.17Y-111.63
X91.44Y-110.388
X92.71Y-104.775
X93.98Y-103.251
X96.52Y-101.727
X97.79Y-100.203
X99.06Y-80.391
X99.06Y-98.679
X101.6Y-79.121
X101.6Y-97.155
X104.138Y-95.76
X104.14Y-77.851
X106.502Y-115.443
X106.553Y-71.526
X106.68Y-76.581
X106.68Y-119.659
X109.22Y-75.311
X109.22Y-90.614
X111.76Y-89.205
X113.093Y-74.041
X114.3Y-88.011
X115.57Y-86.741
X115.646Y-72.771
X118.11Y-81.534
X118.237Y-71.501
X118.897Y-127.94
X118.9Y-121.6
X118.948Y-123.088
X118.948Y-124.689
X118.948Y-126.263
X122.936Y-82.804
X122.936Y-85.598
X122.936Y-87.884
X122.936Y-89.408
X122.936Y-90.932
X123.723Y-107.29
X123.876Y-100.965
X123.901Y-104.775
X123.901Y-106.02
X123.927Y-103.505
X123.977Y-108.585
X124.003Y-109.83
X124.104Y-111.125
X124.181Y-113.64
X124.181Y-114.91
X124.206Y-98.425
X124.206Y-112.395
X129.616Y-102.362
X132.207Y-97.307
X132.385Y-100.965
X133.706Y-95.148
X133.858Y-97.028
X135.026Y-92.812
X136.754Y-90.805
X137.846Y-88.265
X138.532Y-85.725
X147.599Y-128.041
X147.625Y-95.885
X147.625Y-131.343
X168.3Y-95.555
X172.974Y-68.199
X185.42Y-95.822
X185.623Y-79.68
X188.341Y-100.901
X188.519Y-113.665
X190.2Y-94.615
X190.288Y-103.78
X190.442Y-79.512
X190.5Y-106.045
X190.551Y-92.075
X191.059Y-89.56
X191.643Y-116.205
X191.833Y-118.745
X192.214Y-86.995
X192.214Y-108.585
X192.405Y-111.125
X192.976Y-98.425
X193.952Y-131.57
X194.246Y-84.455
X199.923Y-108.941
X199.949Y-93.701
X199.962Y-99.06
X199.962Y-103.95
X199.962Y-106.553
X199.974Y-85.928
X199.974Y-88.671
X200.0Y-114.021
X200.025Y-101.473
X200.025Y-119.38
X200.025Y-121.73
X200.087Y-111.697
X200.088Y-81.852
X200.088Y-91.313
X200.088Y-96.393
X200.13Y-116.65
X202.8Y-68.6
X206.502Y-99.009
X206.502Y-111.912
T2
X81.28Y-68.707
X81.28Y-83.947
X83.82Y-68.707
X83.82Y-83.947
X86.36Y-68.707
X86.36Y-83.947
X88.9Y-68.707
X88.9Y-83.947
X91.44Y-68.707
X91.44Y-83.947
X93.98Y-68.707
X93.98Y-83.947
X96.52Y-68.707
X96.52Y-83.947
X99.06Y-68.707
X99.06Y-83.947
X101.6Y-68.707
X101.6Y-83.947
X104.14Y-68.707
X104.14Y-83.947
X106.68Y-68.707
X106.68Y-83.947
X109.22Y-68.707
X109.22Y-83.947
X111.76Y-68.707
X111.76Y-83.947
X114.3Y-68.707
X114.3Y-83.947
X116.84Y-68.707
X116.84Y-83.947
X119.38Y-68.707
X119.38Y-83.947
X126.365Y-83.185
X126.365Y-85.725
X126.365Y-88.265
X126.365Y-90.805
X126.365Y-93.345
X126.365Y-95.885
X126.365Y-98.425
X126.365Y-100.965
X126.365Y-103.505
X126.365Y-106.045
X126.365Y-108.585
X126.365Y-111.125
X126.365Y-113.665
X126.365Y-116.205
X126.365Y-118.745
X126.365Y-121.285
X141.605Y-83.185
X141.605Y-85.725
X141.605Y-88.265
X141.605Y-90.805
X141.605Y-93.345
X141.605Y-95.885
X141.605Y-98.425
X141.605Y-100.965
X141.605Y-103.505
X141.605Y-106.045
X141.605Y-108.585
X141.605Y-111.125
X141.605Y-113.665
X141.605Y-116.205
X141.605Y-118.745
X141.605Y-121.285
X81.28Y-117.475
X81.28Y-132.715
X83.82Y-117.475
X83.82Y-132.715
X86.36Y-117.475
X86.36Y-132.715
X88.9Y-117.475
X88.9Y-132.715
X91.44Y-117.475
X91.44Y-132.715
X93.98Y-117.475
X93.98Y-132.715
X96.52Y-117.475
X96.52Y-132.715
X99.06Y-117.475
X99.06Y-132.715
X101.6Y-117.475
X101.6Y-132.715
X104.14Y-117.475
X104.14Y-132.715
X106.68Y-117.475
X106.68Y-132.715
X109.22Y-117.475
X109.22Y-132.715
X111.76Y-117.475
X111.76Y-132.715
X114.3Y-117.475
X114.3Y-132.715
X116.84Y-117.475
X116.84Y-132.715
X119.38Y-117.475
X119.38Y-132.715
X164.338Y-83.185
X164.338Y-85.725
X164.338Y-88.265
X164.338Y-90.805
X164.338Y-93.345
X164.338Y-95.885
X164.338Y-98.425
X164.338Y-100.965
X164.338Y-103.505
X164.338Y-106.045
X164.338Y-108.585
X164.338Y-111.125
X164.338Y-113.665
X164.338Y-116.205
X164.338Y-118.745
X164.338Y-121.285
X179.578Y-83.185
X179.578Y-85.725
X179.578Y-88.265
X179.578Y-90.805
X179.578Y-93.345
X179.578Y-95.885
X179.578Y-98.425
X179.578Y-100.965
X179.578Y-103.505
X179.578Y-106.045
X179.578Y-108.585
X179.578Y-111.125
X179.578Y-113.665
X179.578Y-116.205
X179.578Y-118.745
X179.578Y-121.285
X145.415Y-83.185
X145.415Y-85.725
X145.415Y-88.265
X145.415Y-90.805
X145.415Y-93.345
X145.415Y-95.885
X145.415Y-98.425
X145.415Y-100.965
X145.415Y-103.505
X145.415Y-106.045
X145.415Y-108.585
X145.415Y-111.125
X145.415Y-113.665
X145.415Y-116.205
X145.415Y-118.745
X145.415Y-121.285
X160.655Y-83.185
X160.655Y-85.725
X160.655Y-88.265
X160.655Y-90.805
X160.655Y-93.345
X160.655Y-95.885
X160.655Y-98.425
X160.655Y-100.965
X160.655Y-103.505
X160.655Y-106.045
X160.655Y-108.585
X160.655Y-111.125
X160.655Y-113.665
X160.655Y-116.205
X160.655Y-118.745
X160.655Y-121.285
X182.88Y-83.185
X182.88Y-85.725
X182.88Y-88.265
X182.88Y-90.805
X182.88Y-93.345
X182.88Y-95.885
X182.88Y-98.425
X182.88Y-100.965
X182.88Y-103.505
X182.88Y-106.045
X182.88Y-108.585
X182.88Y-111.125
X182.88Y-113.665
X182.88Y-116.205
X182.88Y-118.745
X182.88Y-121.285
X198.12Y-83.185
X198.12Y-85.725
X198.12Y-88.265
X198.12Y-90.805
X198.12Y-93.345
X198.12Y-95.885
X198.12Y-98.425
X198.12Y-100.965
X198.12Y-103.505
X198.12Y-106.045
X198.12Y-108.585
X198.12Y-111.125
X198.12Y-113.665
X198.12Y-116.205
X198.12Y-118.745
X198.12Y-121.285
X81.28Y-92.964
X81.28Y-108.204
X83.82Y-92.964
X83.82Y-108.204
X86.36Y-92.964
X86.36Y-108.204
X88.9Y-92.964
X88.9Y-108.204
X91.44Y-92.964
X91.44Y-108.204
X93.98Y-92.964
X93.98Y-108.204
X96.52Y-92.964
X96.52Y-108.204
X99.06Y-92.964
X99.06Y-108.204
X101.6Y-92.964
X101.6Y-108.204
X104.14Y-92.964
X104.14Y-108.204
X106.68Y-92.964
X106.68Y-108.204
X109.22Y-92.964
X109.22Y-108.204
X111.76Y-92.964
X111.76Y-108.204
X114.3Y-92.964
X114.3Y-108.204
X116.84Y-92.964
X116.84Y-108.204
X119.38Y-92.964
X119.38Y-108.204
X177.597Y-69.291
X177.597Y-76.911
X180.137Y-69.291
X180.137Y-76.911
X182.677Y-69.291
X182.677Y-76.911
X185.217Y-69.291
X185.217Y-76.911
X187.757Y-69.291
X187.757Y-76.911
X190.297Y-69.291
X190.297Y-76.911
X192.837Y-69.291
X192.837Y-76.911
T3
X169.498Y-125.984
X174.498Y-125.984
X131.445Y-125.984
X136.445Y-125.984
X76.581Y-122.635
X76.581Y-127.635
X187.96Y-125.984
X192.96Y-125.984
X172.974Y-70.692
X172.974Y-75.692
X76.581Y-73.787
X76.581Y-78.787
X150.448Y-125.984
X155.448Y-125.984
X202.04Y-83.31
X202.04Y-85.85
X202.04Y-88.39
X202.04Y-90.93
X202.04Y-93.47
X202.04Y-96.01
X202.04Y-98.55
X202.04Y-101.09
X202.04Y-103.63
X202.04Y-106.17
X202.04Y-108.71
X202.04Y-111.25
X202.04Y-113.79
X202.04Y-116.33
X202.04Y-118.87
X202.04Y-121.41
X202.04Y-123.95
X202.04Y-126.49
X202.04Y-129.03
X202.04Y-131.57
X204.58Y-83.31
X204.58Y-85.85
X204.58Y-88.39
X204.58Y-90.93
X204.58Y-93.47
X204.58Y-96.01
X204.58Y-98.55
X204.58Y-101.09
X204.58Y-103.63
X204.58Y-106.17
X204.58Y-108.71
X204.58Y-111.25
X204.58Y-113.79
X204.58Y-116.33
X204.58Y-118.87
X204.58Y-121.41
X204.58Y-123.95
X204.58Y-126.49
X204.58Y-129.03
X204.58Y-131.57
X76.581Y-97.997
X76.581Y-102.997
T0
M30
